<svg xmlns="http://www.w3.org/2000/svg" xmlns:xlink="http://www.w3.org/1999/xlink" width="174.102" height="169.076" viewBox="0 0 174.102 169.076">
  <defs>
    <linearGradient id="linear-gradient" x1="0.5" x2="0.5" y2="1" gradientUnits="objectBoundingBox">
      <stop offset="0" stop-color="#ffc3a0"/>
      <stop offset="1" stop-color="#fad234"/>
    </linearGradient>
  </defs>
  <g id="Group_82" data-name="Group 82" transform="translate(-878.447 -2052.421)">
    <rect id="Rectangle_81" data-name="Rectangle 81" width="139" height="105" rx="52.5" transform="translate(878.447 2139.897) rotate(-39)" fill="url(#linear-gradient)"/>
    <path id="Path_158" data-name="Path 158" d="M102.9,36.177c-.054.028-.107.06-.161.092l-.054.032-.044.024-.01.008-.048.028-.006,0c-.089.056-.175.112-.259.173l-.022.012-.028.024-.05.036-.032.02-.018.016-.034.028-.015.008-.04.032-.008.008-.044.036h0l-.048.04h0l-.046.04-.006,0-.131.117-.02.016-.024.024-.024.024-.02.02-.028.024-.016.016-.032.032-.012.012-.034.036-.008.008-.038.04h0l-.041.044,0,0-.04.04-.006.008-.034.036-.01.012-.03.036-.012.016-.026.028-.018.02-.022.024-.021.028-.016.02-.026.028-.012.02-.006.008-.032.036-.03.04-.006.008-.034.044,0,0-.036.048v0l-.034.044-.006.008-.028.04-.008.012-.026.036-.012.02-.02.032-.016.02-.018.028-.016.028-.014.02-.022.036-.01.016-.024.04-.008.012-.026.044,0,0-.028.052h0l-.028.052,0,0-.028.048,0,.008-.022.044-.008.012-.02.04-.01.02-.018.032-.012.024-.014.028-.014.032-.01.02-.018.04-.008.016-.021.04,0,.012-.022.048,0,.008-.024.052h0l-.022.056,0,0-.018.048-.006.012-.016.044-.006.016-.016.04-.008.02-.012.036-.01.024-.01.028-.012.036-.008.02-.012.04-.006.02-.014.04,0,.016-.016.048,0,.008-.016.056-.018.06h0l-.016.056,0,.008-.012.048,0,.012-.012.048,0,.016-.008.04-.006.024-.008.036-.006.024-.006.032-.008.032-.006.028-.006.036,0,.024-.008.04,0,.016-.008.048,0,.012-.008.052v.008l-.01.056v0l-.008.056v0l-.008.056v.008l-.006.052,0,.012-.006.048v.016l0,.044,0,.02,0,.04,0,.028,0,.064,0,.028,0,.036v.024l0,.04,0,.133V41h0v.132l0,.048V41.2l0,.044,0,.02,0,.04v.024l0,.036,0,.032,0,.028,0,.036q.012.163.036.325h0l.008.06,0,.008.008.052,0,.012c.014.084.033.173.05.261l.006.028.008.036.02.08.012.048,0,.012.012.052,0,.008.016.056v0l.018.06h0l.018.056,0,.008.016.052,0,.012.016.044.006.02.014.04.008.02.012.04.01.024.012.032.012.032.011.028,0,0,0,.008,0,.008,0,0a5.706,5.706,0,0,0,.329.691L107.532,55.5a9.314,9.314,0,0,1,5.546-4.413l.01,0,.07-.02.325-.085.044-.008.038-.008.249-.052.05-.012.032,0,.08-.016h0l.084-.016.028,0,.056-.008.058-.012.026,0,.082-.012h.006l.08-.012.034,0,.05,0,.066-.008.018,0,.086-.008h.01l.074-.008.042,0,.044,0,.072-.008h.015l.086,0,.018,0,.068,0h.048l.038,0,.08,0h.006l.086,0h.509l.026,0h.082l.016,0h.074l.024,0h.05l.024,0h.026l.048,0h.024l.026,0a8.943,8.943,0,0,1,1.229.173l-7.312-12.664a5.5,5.5,0,0,0-5.182-2.706H105l0,0h-.012l-.075,0-.018,0h-.024l-.012,0-.092.008-.018,0h-.008l-.121.02H104.6l-.018,0-.018,0-.11.016-.018,0-.018,0h0l-.014,0-.018,0-.074.016-.018,0-.036.008-.018,0-.016,0h0l-.018,0-.165.04-.008,0h-.01l-.018.008-.036.008h0l-.018,0-.018.008-.018,0-.01,0h-.008l-.054.016,0,0-.014,0-.018,0-.018.008-.014,0h0l-.016,0-.018.008-.018,0-.008,0-.008,0-.018,0-.016.008-.018,0h0l-.014.008-.018,0-.018.008-.014,0h0l-.018.008-.018.008-.016,0-.008,0-.026.008-.018.008-.052.02-.016.008-.016,0,0,0-.016,0-.1.044,0,0-.012,0-.018.008-.016.008-.052.024-.016.008-.01,0-.008,0-.05.024h0l-.014.008-.048.02,0,0-.084.04-.016.012-.016.008h0ZM111,55.35a6.523,6.523,0,1,1,.028,9.251l-.03-.028a6.521,6.521,0,0,1,0-9.223Zm4.611-.924a5.534,5.534,0,0,0-3.915,9.448l.024.028a5.538,5.538,0,1,0,3.891-9.476Zm-12.99-16.258a3.868,3.868,0,1,1-1.134,2.734A3.859,3.859,0,0,1,102.618,38.168Zm2.735-.145a2.879,2.879,0,1,0,2.038.843A2.873,2.873,0,0,0,105.353,38.024ZM86.4,28.23a3.233,3.233,0,1,1-.946,2.285A3.23,3.23,0,0,1,86.4,28.23Zm2.285.04a2.248,2.248,0,1,0,1.586.659A2.239,2.239,0,0,0,88.685,28.271Zm24.423,63.579V68.841h-2.4V91.849h2.4Zm5-23.008V91.849h2.4V68.841Zm-4.013,0V91.849h3.026V68.841Zm-1.12-11.512a3.72,3.72,0,1,1-1.092,2.634A3.716,3.716,0,0,1,112.974,57.329Zm2.634-.1a2.728,2.728,0,1,0,1.938.8A2.736,2.736,0,0,0,115.608,57.225ZM103.981,39.533a1.934,1.934,0,1,1-.57,1.369A1.932,1.932,0,0,1,103.981,39.533Zm1.372.418a.954.954,0,0,0-.677,1.626.955.955,0,1,0,.677-1.626ZM87.693,29.523a1.4,1.4,0,0,1,2.393.992,1.4,1.4,0,1,1-2.8,0A1.409,1.409,0,0,1,87.693,29.523Zm.992.578a.412.412,0,0,0-.414.413.414.414,0,1,0,.827,0,.42.42,0,0,0-.12-.293A.432.432,0,0,0,88.685,30.1Zm3.347,25.654v-2.1H81.173v2.1Zm-1.887-4.28H83.06v1.192h7.085V51.475Zm-1.192-.988V36.859l-3.2-2.008-.028-.016-.026-.02h0l-.024-.016-.028-.02h0l-.024-.016-.027-.02-.006,0-.021-.012-.028-.02-.008,0-.018-.012-.026-.02-.008-.008-.02-.012-.027-.02-.01,0-.016-.012-.024-.02-.012-.008-.016-.012-.024-.02-.014-.008-.012-.012-.026-.02-.014-.008-.01-.008-.026-.02-.016-.016-.01-.008-.024-.02-.018-.012-.006-.008-.024-.02-.02-.016,0,0-.024-.02-.022-.016,0,0-.022-.024L85,34.293v0l-.024-.02-.024-.02h0l-.024-.024L84.9,34.2h0l-.022-.02-.022-.024,0,0-.02-.016-.024-.024,0,0-.018-.016-.022-.024-.006,0-.016-.016-.022-.024-.008-.008L84.7,34l-.022-.02-.008-.012-.014-.012-.022-.024-.01-.008-.01-.012-.022-.024-.01-.012-.012-.012-.02-.024-.012-.012-.008-.008-.02-.024-.016-.016-.006-.008-.022-.024-.014-.02-.006,0-.021-.024-.016-.02,0,0-.022-.024-.016-.02,0,0-.02-.024-.018-.024-.02-.024-.02-.024v0l-.018-.02-.018-.024v17h4.7Zm1.242,7.565a.492.492,0,1,1,0,.984H78.926v1.277H94.278v-3.57H78.926v1.309H90.195Zm37.632,37.182a.494.494,0,0,1,0,.988H89.047a.494.494,0,1,1,0-.988Zm-22.709,2.361a.492.492,0,1,1,0,.984H78.282a.492.492,0,1,1,0-.984Zm-29.583,0a.492.492,0,1,1,0,.984H72.18a.492.492,0,1,1,0-.984Zm53.82-.072a.494.494,0,0,1,0,.988H116.638a.494.494,0,1,1,0-.988ZM78.432,60.529a.494.494,0,0,1,0,.988h-.494V62.2h.494a.494.494,0,0,1,0,.988h-.494v.683h.494a.494.494,0,0,1,0,.988h-.494v.679h.494a.494.494,0,0,1,0,.988h-.494V67.2h.494a.494.494,0,0,1,0,.988h-.494v.679h.494a.494.494,0,0,1,0,.988h-.494v.683h.494a.492.492,0,1,1,0,.984h-.494v3.188H77.33l-2.943-5.738v-8.48l1.9-3.75h1.652v3.786h.494ZM95.266,71.523h-.494a.492.492,0,1,1,0-.984h.494v-.683h-.494a.494.494,0,0,1,0-.988h.494v-.679h-.494a.494.494,0,0,1,0-.988h.494V66.52h-.494a.494.494,0,0,1,0-.988h.494v-.679h-.494a.494.494,0,0,1,0-.988h.494v-.683h-.494a.494.494,0,0,1,0-.988h.494v-.679h-.494a.494.494,0,0,1,0-.988h.494V56.743h1.652l1.9,3.75v8.48l-2.943,5.738h-.606Zm20.341-19.808-.078,0h-.157l-.079,0h0l-.072,0h-.034l-.044,0-.06,0h-.016l-.078,0h-.01l-.067.008-.038,0h-.038l-.066.008h-.01l-.076.008-.016,0-.06.008-.042,0-.035,0-.068.012h-.006l-.076.008-.02,0-.054.008-.048.008-.1.02h0l-.074.012-.026,0-.048.012-.052.008-.022,0c-.093.02-.185.044-.277.064l-.016,0a8.286,8.286,0,0,0-6.272,8.007V91.848h2.353v-23.5a.5.5,0,0,1,.494-.494H121a.5.5,0,0,1,.494.494v23.5h2.353V59.963a8.2,8.2,0,0,0-1.574-4.835V26.5a.5.5,0,0,0-.494-.494l-33.3.02h-.158l-.024,0h-.014a4.086,4.086,0,0,0-.982.148,4.344,4.344,0,0,0-2.535,1.879l-.083.136-.008.012a4.15,4.15,0,0,0-.4,3.152,4.658,4.658,0,0,0,.265.731h0l.06.128.008.012.006.012a2.207,2.207,0,0,0,.121.217v0l.08.132.008.012.016.02,0,.012.01.012.016.024,0,.008.028.04,0,0,.012.02.016.02.018.024.014.02,0,0,.016.02.014.02,0,0,.018.02.01.016.006.008.016.024.01.012.006.008.018.02.01.012.042.056.018.02.006.008.012.012.018.024,0,0,.012.016.038.04.018.024h0l.018.02.016.02h0l.018.02.016.02h0l.018.02.016.016,0,0,.018.02.016.016,0,0,.02.02.06.06.02.02.01.008.01.012.022.02.006,0,.014.012.022.02,0,0,.016.016.02.02h0l.018.016.022.02h0l.02.02.022.016h0l.022.02.02.016h0l.024.02.016.012.006,0,.022.016.016.016.006,0,.022.016.016.012.008.008.022.016.012.008.01.008.024.016.01.008.012.012.022.016.01,0,.014.012.024.016.008,0,.016.012.024.016,0,0,.02.012.024.016,0,0,.02.012.024.016h0l.024.016.024.016,3.395,2.124a.731.731,0,0,1,.089.056l9.359,5.862-.008-.048-.008-.052,0-.012,0-.04-.006-.04,0-.012-.006-.048,0-.016,0-.036-.006-.04v-.012l-.006-.049,0-.02,0-.032,0-.044v-.008l-.014-.2,0-.02,0-.028,0-.1,0-.024v-.028l0-.048c0-.12,0-.241.006-.357l0-.032v-.02l0-.052v-.008l0-.04.008-.1v-.008l.02-.193,0-.04,0-.012c.01-.08.022-.165.034-.249l.008-.044v-.008l.028-.148.01-.048,0-.024.006-.028.01-.048h0l.012-.048c.018-.084.038-.169.06-.253l.02-.072.006-.02.014-.048,0-.008.028-.088.014-.048,0-.008.014-.04.01-.036.006-.012.016-.048,0-.012.036-.1.016-.044.008-.024.018-.048.006-.016.022-.056,0-.008.026-.06v0l.028-.064,0,0,.026-.06,0-.012.024-.052.008-.016.02-.048.012-.024.018-.036.014-.032.016-.032.02-.036.012-.028.022-.044.008-.016.028-.052.006-.008.03-.06,0,0,.034-.06h0l.032-.06.006-.008.028-.052.01-.016.026-.044.014-.024.024-.036.016-.028.02-.032.022-.032.016-.024.026-.04.012-.02.032-.048.008-.012.036-.052,0,0,.04-.056h0l.04-.06.006,0,.036-.052.01-.012.048-.06.028-.04.02-.024.024-.028.024-.032.021-.024.03-.036.014-.02.037-.04.01-.012.04-.048.159-.173.04-.044.014-.016.036-.032.02-.024.056-.056.024-.024.032-.028.02-.02.038-.036.014-.012.044-.044.114-.1,0,0,.185-.153.034-.032.028-.02.03-.024.034-.024.022-.02c.079-.056.157-.116.237-.173h0l.2-.133.042-.028.028-.016.07-.044.028-.016.042-.024.022-.012v0l.018-.008.02-.012.02-.012.015-.008h.006l.058-.036.008,0,.012,0,.062-.036.016-.008.021-.008.036-.02h0l.02-.012.058-.028.022-.012.038-.02h.006a6,6,0,0,1,.827-.329h0l.021,0,.056-.02.036-.008C99.5,32.245,95.328,29.5,91.16,27.009l30.129-.02V54a8.242,8.242,0,0,0-4.636-2.217h-.006l-.2-.024h-.016l-.022,0-.044,0h-.022l-.022,0H116.3l-.022,0h-.022l-.016,0h-.05l-.022,0h-.032l-.012,0h-.066l-.022,0h-.044l-.024,0h-.087l-.022,0H115.7l-.024,0h-.066ZM87.525,72.825a5.563,5.563,0,0,1,2.429,1.008l1.578-1.578,1.236,1.237L91.19,75.069A5.6,5.6,0,0,1,92.2,77.5h2.231v1.747H92.2a5.6,5.6,0,0,1-1.008,2.433l1.578,1.578L91.532,84.5l-1.578-1.578a5.566,5.566,0,0,1-2.429,1.008v2.228H87.1V90.3a.494.494,0,1,1-.988,0v-4.14h-.333V83.927a5.573,5.573,0,0,1-2.429-1.008L81.767,84.5,80.53,83.26l1.578-1.578A5.6,5.6,0,0,1,81.1,79.249H78.87V77.5H81.1a5.6,5.6,0,0,1,1.008-2.433L80.53,73.491l1.237-1.237,1.578,1.578a5.561,5.561,0,0,1,2.429-1.008V70.6h1.751Zm-1.417,5.818a.494.494,0,1,1,.988,0v2.509a2.812,2.812,0,1,0-.988-.016Z" transform="translate(864.232 2077.418)" fill="#fff" fill-rule="evenodd"/>
  </g>
</svg>
