<svg xmlns="http://www.w3.org/2000/svg" xmlns:xlink="http://www.w3.org/1999/xlink" width="174.102" height="169.076" viewBox="0 0 174.102 169.076">
  <defs>
    <linearGradient id="linear-gradient" x1="0.5" x2="0.5" y2="1" gradientUnits="objectBoundingBox">
      <stop offset="0" stop-color="#ffc3a0"/>
      <stop offset="1" stop-color="#fad234"/>
    </linearGradient>
  </defs>
  <g id="Group_81" data-name="Group 81" transform="translate(-401.447 -2060.421)">
    <rect id="Rectangle_77" data-name="Rectangle 77" width="139" height="105" rx="52.5" transform="translate(401.447 2147.897) rotate(-39)" fill="url(#linear-gradient)"/>
    <path id="Path_129" data-name="Path 129" d="M206.5,40.111c.111-.349.206-.651.286-.953a99.71,99.71,0,0,1,3.24-10.18,3.606,3.606,0,0,1,3.144-2.509c1.032-.111,2.128-.206,2.827.778a2.587,2.587,0,0,0,1.731,1.112,4.71,4.71,0,0,1,1.032.27c.461.175.635-.016.762-.445.4-1.4.81-2.779,1.223-4.161.461-1.572.461-1.556-1.064-2.1a2.4,2.4,0,0,0-1.874-.032,2.5,2.5,0,0,1-2.938-.6,8.552,8.552,0,0,0-3.224-2.08,22.6,22.6,0,0,0-11.1-1.207,11.8,11.8,0,0,0-5.145,1.874,6.387,6.387,0,0,0-.6.54,28.2,28.2,0,0,1,6.13.064,4.937,4.937,0,0,1,3.494,1.795,7.433,7.433,0,0,1,1.3,4.129,16.2,16.2,0,0,1-.778,5.971c-.6,2.064-1.175,4.161-1.763,6.225-.079.27-.143.508.222.6C204.424,39.508,205.424,39.794,206.5,40.111Z" transform="translate(294.116 2102.239)" fill="#fff"/>
    <path id="Path_130" data-name="Path 130" d="M187.21,189.04a2.349,2.349,0,0,0,2.319-1.27,6.567,6.567,0,0,0,.683-1.7q2.287-9.457,4.542-18.93c.619-2.62,1.207-5.241,1.842-7.861.127-.508,0-.715-.492-.826-.667-.159-1.334-.349-2-.556-1.223-.365-.985-.318-1.35.7q-4.5,12.84-9.02,25.663a3.791,3.791,0,0,0-.254,1.1A3.456,3.456,0,0,0,187.21,189.04Z" transform="translate(303.644 1984.532)" fill="#fff"/>
    <path id="Path_131" data-name="Path 131" d="M12.76,79.342c.064.524.127.969.191,1.4.461,3.049.937,6.1,1.382,9.147.461,3.065.905,6.146,1.35,9.211.461,3.1.921,6.178,1.4,9.274.286,1.953.588,3.907.873,5.876.064.413.206.6.7.524q4.335-.715,8.671-1.382c4.129-.651,8.242-1.27,12.371-1.922.159-.032.286-.222.429-.349-.175-.1-.381-.27-.54-.254-2.255.318-4.494.667-6.749,1.016-4.558.715-9.116,1.413-13.657,2.144-.476.079-.635-.032-.7-.492-.27-1.985-.556-3.954-.858-5.924-.651-4.383-1.334-8.766-1.985-13.133-.715-4.764-1.413-9.544-2.144-14.324-.079-.524.1-.762.619-.826.921-.127,1.842-.286,2.747-.429,3.748-.6,7.5-1.223,11.244-1.826l9.83-1.62c3.049-.492,6.082-.985,9.131-1.493,1.429-.238,2.843-.461,4.272-.731.175-.032.3-.286.445-.429-.191-.079-.381-.159-.572-.222-.048-.016-.111.016-.175.032-1.779.3-3.557.6-5.32.889-3.748.619-7.5,1.223-11.244,1.842-3.494.572-6.988,1.159-10.481,1.731-3.589.588-7.178,1.191-10.767,1.763C12.823,78.9,12.617,79.009,12.76,79.342Z" transform="translate(447.285 2056.132)" fill="#fff"/>
    <path id="Path_132" data-name="Path 132" d="M247.781,81.916a1.727,1.727,0,0,1-.286-.016,5.221,5.221,0,0,0-.143,1.207c.175,1.286.429,2.573.635,3.859.572,3.446,1.143,6.908,1.715,10.354s1.143,6.908,1.731,10.354c.365,2.207.746,4.415,1.112,6.606.064.333,0,.572-.413.635l-9.147,1.429q-2.168.333-4.335.715c-.127.016-.238.222-.349.349.159.079.3.222.445.222.461-.032.905-.111,1.35-.175q5.074-.81,10.132-1.62c1.016-.159,2.017-.333,3.113-.508Q250.576,98.583,247.781,81.916Z" transform="translate(257.524 2048.286)" fill="#fff"/>
    <path id="Path_133" data-name="Path 133" d="M156.249,113.163a.591.591,0,0,0,.048-.937c-1-1.191-1.969-2.382-2.97-3.573-2.779-3.351-5.574-6.718-8.353-10.084a2.28,2.28,0,0,1-.476-.985,1.5,1.5,0,0,1,1.016-1.572,1.6,1.6,0,0,1,1.937.635c2.731,3.271,5.479,6.543,8.21,9.814.651.778,1.318,1.556,2,2.366a.6.6,0,0,0,.048-.937c-1.1-1.3-2.192-2.62-3.287-3.923-2.207-2.636-4.4-5.272-6.622-7.877a2.2,2.2,0,0,0-3.224-.238,2.07,2.07,0,0,0-.111,3.113q5.145,6.217,10.291,12.419C155.248,111.988,155.741,112.56,156.249,113.163Z" transform="translate(337.003 2037.048)" fill="#fff"/>
    <path id="Path_134" data-name="Path 134" d="M98.129,157.9a2.275,2.275,0,0,0-.381-.254c-1.1-.413-2.192-.794-3.287-1.207-.349-.127-.508,0-.635.3q-3,7.385-6,14.753c-.159.365-.048.54.286.667,1.032.413,2.064.81,3.081,1.27.556.254.778.127.985-.429,1.906-4.875,3.843-9.735,5.765-14.594C97.986,158.3,98.034,158.14,98.129,157.9Z" transform="translate(384.165 1985.624)" fill="#fff"/>
    <path id="Path_135" data-name="Path 135" d="M147.33,189.114c-.794-1-1.525-1.826-2.128-2.716-.54-.826-1.143-1.255-2.144-.842a3.06,3.06,0,0,1-.762.127l-6.368,1.1a.832.832,0,0,0-.762.54c-.413,1.175-.858,2.334-1.286,3.51a2.856,2.856,0,0,0-.079.508C138.326,190.607,142.741,189.876,147.33,189.114Z" transform="translate(345.429 1961.225)" fill="#fff"/>
    <path id="Path_136" data-name="Path 136" d="M66.139,199.9c-2.6.429-5.082.826-7.639,1.239.175,1.191.365,2.319.492,3.462.064.492.27.556.715.492,1.3-.206,2.62-.381,3.938-.54a.9.9,0,0,0,.81-.572c.476-1.143.985-2.287,1.477-3.43C66.012,200.361,66.043,200.2,66.139,199.9Z" transform="translate(408.771 1949.025)" fill="#fff"/>
    <path id="Path_137" data-name="Path 137" d="M257.08,224.56c-1.556-.953-3.1-1.89-4.78-2.906.064.3.032.651.191.826a3.837,3.837,0,0,0,1.064.826c.54.3,1.112.508,1.667.778a2.109,2.109,0,0,1,1.4,1.953,1.555,1.555,0,0,0,.143.492l.159-.079a.879.879,0,0,0,.111-.143,5.375,5.375,0,0,0,.6-4.558,6.055,6.055,0,0,0-3.017-4.208c-.476-.238-.778-.032-1.128.206a.986.986,0,0,0-.476,1.1,3.662,3.662,0,0,0,.635-.429c.4-.413.762-.318,1.207-.032A6.329,6.329,0,0,1,257.08,224.56Z" transform="translate(245.748 1934.275)" fill="#fff"/>
    <path id="Path_138" data-name="Path 138" d="M81.3,264.6a.972.972,0,0,0,.191.079c1.572-1.969,3.16-3.938,4.764-5.955-.238-.127-.381-.222-.54-.286-1.016-.413-2.033-.794-3.033-1.223-.476-.206-.619-.064-.651.429-.127,1.334-.286,2.668-.429,4.018C81.491,262.647,81.4,263.631,81.3,264.6Z" transform="translate(389.592 1900.889)" fill="#fff"/>
    <path id="Path_139" data-name="Path 139" d="M131.552,131.8a2.057,2.057,0,0,0-1.874,1.286c-.238.588-.461,1.175-.731,1.747-.159.333-.111.54.27.667,1.064.365,2.128.762,3.176,1.175.381.143.54.016.683-.318.238-.6.508-1.207.762-1.81a1.456,1.456,0,0,0-.54-1.969A12.409,12.409,0,0,0,131.552,131.8Z" transform="translate(349.583 2006.31)" fill="#fff"/>
    <path id="Path_140" data-name="Path 140" d="M262.98,176.91c1.334-.175,2.652-.349,3.954-.556.111-.016.254-.3.238-.429-.159-1.048-.349-2.112-.572-3.144a.624.624,0,0,0-.461-.381c-.667.048-1.334.143-2,.254-.333.048-.572.206-.381.683.6-.079,1.223-.175,1.842-.222.143-.016.413.111.429.206.175.794.3,1.62.461,2.462-1.032.143-2,.27-2.954.4C263.187,176.227,262.869,176.307,262.98,176.91Z" transform="translate(236.782 1972.158)" fill="#fff"/>
    <path id="Path_141" data-name="Path 141" d="M206.588,40.209c-1.064-.318-2.08-.6-3.081-.889-.365-.111-.3-.333-.222-.6.588-2.08,1.159-4.161,1.763-6.225a16.248,16.248,0,0,0,.778-5.971,7.348,7.348,0,0,0-1.3-4.129A4.937,4.937,0,0,0,201.03,20.6a28.191,28.191,0,0,0-6.13-.064c.206-.175.381-.381.6-.54a11.8,11.8,0,0,1,5.145-1.874,22.768,22.768,0,0,1,11.1,1.207,8.366,8.366,0,0,1,3.224,2.08,2.5,2.5,0,0,0,2.938.6,2.4,2.4,0,0,1,1.874.032c1.525.54,1.525.524,1.064,2.1-.413,1.382-.826,2.763-1.223,4.161-.127.429-.3.6-.762.445a4.71,4.71,0,0,0-1.032-.27,2.449,2.449,0,0,1-1.731-1.112c-.715-.969-1.795-.889-2.827-.778a3.606,3.606,0,0,0-3.144,2.509,99.717,99.717,0,0,0-3.24,10.18C206.795,39.558,206.7,39.844,206.588,40.209Z" transform="translate(294.032 2102.141)" fill="#fff"/>
    <path id="Path_142" data-name="Path 142" d="M187.216,189.162a3.456,3.456,0,0,1-3.732-3.684,3.791,3.791,0,0,1,.254-1.1q4.5-12.84,9.036-25.647c.349-1.016.127-1.048,1.35-.7.667.191,1.334.4,2,.556.492.111.619.318.492.826-.635,2.62-1.223,5.241-1.842,7.861q-2.263,9.457-4.542,18.93a6.567,6.567,0,0,1-.683,1.7A2.4,2.4,0,0,1,187.216,189.162Z" transform="translate(303.638 1984.41)" fill="#fff"/>
    <path id="Path_143" data-name="Path 143" d="M12.761,79.342c-.143-.333.064-.445.476-.508,3.589-.572,7.178-1.175,10.767-1.763,3.494-.572,6.988-1.159,10.481-1.731,3.748-.619,7.5-1.223,11.244-1.842,1.779-.286,3.557-.588,5.32-.889.064-.016.127-.048.175-.032.191.064.381.143.572.222-.143.143-.27.4-.445.429-1.413.27-2.843.492-4.272.731-3.049.492-6.082.985-9.131,1.493l-9.83,1.62Q22.5,78,16.874,78.9c-.921.143-1.826.318-2.747.429-.524.064-.7.3-.619.826.731,4.764,1.429,9.544,2.144,14.324.651,4.383,1.334,8.766,1.985,13.133.3,1.969.588,3.954.858,5.923.064.461.206.572.7.492,4.542-.73,9.1-1.429,13.657-2.144,2.255-.349,4.494-.7,6.749-1.016.159-.016.365.159.54.254-.143.127-.27.318-.429.349q-6.17.977-12.371,1.922-4.335.667-8.671,1.382c-.492.079-.635-.111-.7-.524-.286-1.953-.572-3.907-.873-5.876-.461-3.1-.937-6.178-1.4-9.274-.461-3.065-.905-6.146-1.35-9.211L12.967,80.74C12.888,80.311,12.824,79.882,12.761,79.342Z" transform="translate(447.284 2056.132)" fill="#fff"/>
    <path id="Path_144" data-name="Path 144" d="M247.949,82l5.59,33.445c-1.1.175-2.1.349-3.113.508l-10.132,1.62c-.445.064-.905.143-1.35.175-.143.016-.3-.143-.445-.222.111-.127.222-.318.349-.349q2.168-.381,4.335-.715c3.049-.476,6.1-.969,9.147-1.429.413-.064.461-.3.413-.635-.365-2.207-.746-4.4-1.112-6.606-.572-3.446-1.143-6.908-1.731-10.354-.572-3.446-1.143-6.908-1.715-10.354-.222-1.286-.461-2.573-.635-3.859a5.431,5.431,0,0,1,.143-1.207A1.283,1.283,0,0,1,247.949,82Z" transform="translate(257.356 2048.202)" fill="#fff"/>
    <path id="Path_145" data-name="Path 145" d="M156.249,113.1c-.508-.6-1-1.175-1.493-1.779Q149.611,105.1,144.465,98.9a2.07,2.07,0,0,1,.111-3.113,2.17,2.17,0,0,1,3.224.238c2.223,2.6,4.415,5.257,6.622,7.877,1.1,1.3,2.176,2.62,3.287,3.923a.591.591,0,0,1-.048.937c-.683-.81-1.35-1.588-2-2.366-2.731-3.271-5.479-6.543-8.21-9.814a1.585,1.585,0,0,0-1.937-.635,1.477,1.477,0,0,0-1.016,1.572,1.973,1.973,0,0,0,.476.985c2.779,3.367,5.558,6.718,8.353,10.084.985,1.191,1.969,2.382,2.97,3.573A.582.582,0,0,1,156.249,113.1Z" transform="translate(337.003 2037.111)" fill="#fff"/>
    <path id="Path_146" data-name="Path 146" d="M98.112,158.02c-.079.238-.127.381-.191.54-1.922,4.859-3.859,9.719-5.765,14.594-.222.556-.429.683-.985.429-1-.461-2.049-.858-3.081-1.27-.349-.143-.445-.3-.286-.667q3.025-7.361,6-14.753c.127-.318.286-.445.635-.3,1.1.413,2.192.794,3.287,1.207A1.329,1.329,0,0,1,98.112,158.02Zm-3.748-.794c-.27.683-.524,1.286-.762,1.89q-2.454,6.027-4.923,12.053c-.191.476-.1.667.349.826a19.275,19.275,0,0,1,1.874.762c.476.238.667.143.858-.349,1.239-3.176,2.493-6.336,3.764-9.513.6-1.509,1.191-3.017,1.81-4.59C96.334,157.957,95.4,157.607,94.364,157.226Z" transform="translate(384.182 1985.505)" fill="#fff"/>
    <path id="Path_147" data-name="Path 147" d="M147.414,189.163c-4.59.762-9,1.477-13.514,2.223a3.121,3.121,0,0,1,.079-.508c.429-1.175.889-2.334,1.286-3.51a.809.809,0,0,1,.762-.54l6.368-1.1a4.022,4.022,0,0,0,.762-.127c1-.4,1.588.032,2.144.842C145.89,187.352,146.62,188.162,147.414,189.163Zm-12.641,1.445c3.875-.635,7.639-1.27,11.482-1.906-.683-.858-1.27-1.62-1.89-2.366a.735.735,0,0,0-.556-.175c-.556.064-1.1.159-1.636.254-1.89.318-3.78.635-5.654.985-.238.048-.588.191-.667.381C135.456,188.67,135.139,189.591,134.773,190.608Z" transform="translate(345.345 1961.176)" fill="#fff"/>
    <path id="Path_148" data-name="Path 148" d="M66.139,199.9c-.1.3-.143.461-.206.619-.492,1.143-1,2.287-1.477,3.43a.86.86,0,0,1-.81.572c-1.318.159-2.62.333-3.938.54-.445.064-.651,0-.715-.492-.143-1.128-.318-2.255-.492-3.462C61.057,200.726,63.534,200.329,66.139,199.9Zm-.985.81c-1.906.3-3.668.572-5.4.873-.175.032-.461.318-.461.461a15.232,15.232,0,0,0,.318,2.049.548.548,0,0,0,.429.286c1.08-.127,2.16-.27,3.224-.445a.879.879,0,0,0,.588-.3C64.312,202.711,64.693,201.758,65.154,200.71Z" transform="translate(408.771 1949.025)" fill="#fff"/>
    <path id="Path_149" data-name="Path 149" d="M257.08,224.71a6.253,6.253,0,0,0-2.223-6.146.814.814,0,0,0-1.207.032,4.845,4.845,0,0,1-.635.429.976.976,0,0,1,.476-1.1.958.958,0,0,1,1.128-.206,6.055,6.055,0,0,1,3.017,4.208,5.375,5.375,0,0,1-.6,4.558.873.873,0,0,1-.111.143c-.032.032-.064.032-.159.079a2.124,2.124,0,0,1-.143-.492,2.109,2.109,0,0,0-1.4-1.953c-.556-.27-1.143-.476-1.667-.778a3.907,3.907,0,0,1-1.064-.826c-.159-.175-.127-.524-.191-.826C253.983,222.821,255.524,223.758,257.08,224.71Z" transform="translate(245.748 1934.124)" fill="#fff"/>
    <path id="Path_150" data-name="Path 150" d="M81.3,264.6c.1-.985.175-1.953.286-2.938.143-1.334.318-2.668.429-4.018.048-.492.175-.635.651-.429,1,.429,2.017.81,3.033,1.223.159.064.3.159.54.286-1.62,2.017-3.192,3.986-4.764,5.955A1.56,1.56,0,0,1,81.3,264.6Zm.81-1.842c.048.016.1.016.127.032,1-1.27,1.985-2.525,3.017-3.843-.937-.365-1.747-.683-2.62-1.032C82.459,259.6,82.285,261.186,82.11,262.758Z" transform="translate(389.592 1900.889)" fill="#fff"/>
    <path id="Path_151" data-name="Path 151" d="M131.589,131.8a10.878,10.878,0,0,1,1.747.794,1.456,1.456,0,0,1,.54,1.969c-.254.6-.524,1.191-.762,1.81-.127.333-.3.461-.683.318-1.048-.413-2.112-.794-3.176-1.175-.381-.127-.413-.333-.27-.667.254-.572.476-1.175.73-1.747A2.031,2.031,0,0,1,131.589,131.8Zm-1.937,3.16c.921.349,1.795.683,2.652.969.1.032.318-.111.381-.238.222-.461.4-.937.619-1.413a.8.8,0,0,0-.27-1.1,5.219,5.219,0,0,0-1.445-.588,1.025,1.025,0,0,0-1.239.667C130.112,133.8,129.906,134.325,129.652,134.96Z" transform="translate(349.545 2006.31)" fill="#fff"/>
    <path id="Path_152" data-name="Path 152" d="M262.954,176.906c-.127-.6.206-.683.556-.731.953-.127,1.906-.254,2.954-.4-.159-.842-.286-1.652-.461-2.462-.016-.1-.286-.222-.429-.206-.619.048-1.239.143-1.842.222-.175-.492.064-.635.381-.683.667-.1,1.334-.206,2-.254a.593.593,0,0,1,.461.381q.334,1.572.572,3.144c.016.127-.143.413-.238.429C265.606,176.557,264.3,176.716,262.954,176.906Z" transform="translate(236.809 1972.162)" fill="#fff"/>
    <path id="Path_153" data-name="Path 153" d="M98.892,160.9c1.032.381,1.969.715,2.97,1.08-.619,1.572-1.223,3.081-1.81,4.59-1.255,3.176-2.525,6.336-3.764,9.513-.191.492-.4.588-.858.349a15.972,15.972,0,0,0-1.874-.762c-.445-.159-.54-.349-.349-.826q2.477-6.027,4.923-12.053C98.368,162.186,98.607,161.583,98.892,160.9Z" transform="translate(379.654 1981.832)" fill="#fff"/>
    <path id="Path_154" data-name="Path 154" d="M139.4,194.418c.381-1.016.683-1.922,1.064-2.811.079-.191.429-.333.667-.381,1.89-.349,3.78-.667,5.654-.985.54-.1,1.1-.206,1.636-.254a.757.757,0,0,1,.556.175c.619.746,1.223,1.509,1.89,2.366C147.039,193.148,143.275,193.767,139.4,194.418Z" transform="translate(340.718 1957.366)" fill="#fff"/>
    <path id="Path_155" data-name="Path 155" d="M69.357,205c-.461,1.048-.842,2-1.3,2.906a.879.879,0,0,1-.588.3c-1.064.175-2.144.318-3.224.445-.143.016-.413-.159-.429-.286a14.484,14.484,0,0,1-.318-2.049c-.016-.143.27-.429.461-.461C65.688,205.572,67.451,205.3,69.357,205Z" transform="translate(404.568 1944.735)" fill="#fff"/>
    <path id="Path_156" data-name="Path 156" d="M86.4,266.944c.175-1.588.349-3.16.54-4.844.858.333,1.683.667,2.62,1.032-1.032,1.318-2.033,2.573-3.017,3.843A.463.463,0,0,1,86.4,266.944Z" transform="translate(385.302 1896.703)" fill="#fff"/>
    <path id="Path_157" data-name="Path 157" d="M133.6,139.08c.254-.635.461-1.159.7-1.683a1.032,1.032,0,0,1,1.239-.667,4.775,4.775,0,0,1,1.445.588.8.8,0,0,1,.27,1.1c-.206.461-.4.953-.619,1.413-.064.111-.286.27-.381.238C135.379,139.763,134.521,139.429,133.6,139.08Z" transform="translate(345.597 2002.191)" fill="#fff"/>
  </g>
</svg>
