<svg xmlns="http://www.w3.org/2000/svg" width="45.183" height="61.649" viewBox="0 0 45.183 61.649">
  <g id="Expanded" transform="translate(-8.293 -0.007)">
    <g id="Group_70" data-name="Group 70" transform="translate(8.293 0.007)">
      <g id="Group_52" data-name="Group 52" transform="translate(27.911 28.249)">
        <path id="Path_45" data-name="Path 45" d="M46.009,55.4a1.284,1.284,0,0,1-1.015-.5l-7-8.994-.27-.789V33.411c0-3.121-1.644-4.483-5.247-7.467-.623-.516-1.294-1.071-2.009-1.683a1.285,1.285,0,1,1,1.667-1.955c.705.6,1.365,1.15,1.981,1.658,3.72,3.08,6.177,5.116,6.177,9.446V44.68l6.726,8.646A1.285,1.285,0,0,1,46.009,55.4Z" transform="translate(-30.022 -21.999)" fill="#fc4949"/>
      </g>
      <g id="Group_53" data-name="Group 53" transform="translate(18.766 35.804)">
        <path id="Path_46" data-name="Path 46" d="M33.516,53.723a1.284,1.284,0,0,1-1.046-.537l-1.317-1.843a8.942,8.942,0,0,1-1.675-5.228v-3.55l-5.493-7.933a4.009,4.009,0,0,1,5.758-5.579l7.065,7.065a1.284,1.284,0,0,1-1.816,1.816l-7.065-7.065a1.44,1.44,0,0,0-2.037,2.036l.148.177,5.78,8.349.229.731v3.952a6.389,6.389,0,0,0,1.2,3.735l1.317,1.842a1.284,1.284,0,0,1-1.046,2.031Z" transform="translate(-22.902 -27.88)" fill="#fc4949"/>
      </g>
      <g id="Group_54" data-name="Group 54" transform="translate(2.22 17.973)">
        <path id="Path_47" data-name="Path 47" d="M34.427,52.535H15.159A5.143,5.143,0,0,1,10.021,47.4V19.137A5.143,5.143,0,0,1,15.159,14H33.142a5.143,5.143,0,0,1,5.138,5.138V38.4H35.711V19.137a2.572,2.572,0,0,0-2.569-2.569H15.159a2.572,2.572,0,0,0-2.569,2.569V47.4a2.572,2.572,0,0,0,2.569,2.569H34.427Z" transform="translate(-10.021 -13.999)" fill="#fc4949"/>
      </g>
      <g id="Group_55" data-name="Group 55" transform="translate(7.267 10.266)">
        <path id="Path_48" data-name="Path 48" d="M30.3,13.578a10.277,10.277,0,0,0-14.533,0L13.95,11.761a12.845,12.845,0,0,1,18.166,0Z" transform="translate(-13.95 -7.999)" fill="#fc4949"/>
      </g>
      <g id="Group_56" data-name="Group 56" transform="translate(3.634 5.137)">
        <path id="Path_49" data-name="Path 49" d="M34.737,11.081a15.432,15.432,0,0,0-21.8,0L11.122,9.265a18,18,0,0,1,25.432,0Z" transform="translate(-11.122 -4.006)" fill="#fc4949"/>
      </g>
      <g id="Group_57" data-name="Group 57">
        <path id="Path_50" data-name="Path 50" d="M39.175,8.585a20.577,20.577,0,0,0-29.066,0L8.293,6.769a23.146,23.146,0,0,1,32.7,0Z" transform="translate(-8.293 -0.007)" fill="#fc4949"/>
      </g>
      <g id="Group_58" data-name="Group 58" transform="translate(9.927 25.68)">
        <path id="Path_51" data-name="Path 51" d="M17.306,20a1.285,1.285,0,1,0,1.285,1.285A1.285,1.285,0,0,0,17.306,20Z" transform="translate(-16.021 -19.999)" fill="#fc4949"/>
      </g>
      <g id="Group_59" data-name="Group 59" transform="translate(15.065 25.68)">
        <path id="Path_52" data-name="Path 52" d="M21.306,20a1.285,1.285,0,1,0,1.285,1.285A1.285,1.285,0,0,0,21.306,20Z" transform="translate(-20.021 -19.999)" fill="#fc4949"/>
      </g>
      <g id="Group_60" data-name="Group 60" transform="translate(20.203 25.68)">
        <path id="Path_53" data-name="Path 53" d="M25.306,20a1.285,1.285,0,1,0,1.285,1.285A1.285,1.285,0,0,0,25.306,20Z" transform="translate(-24.021 -19.999)" fill="#fc4949"/>
      </g>
      <g id="Group_61" data-name="Group 61" transform="translate(9.927 30.818)">
        <path id="Path_54" data-name="Path 54" d="M17.306,24a1.285,1.285,0,1,0,1.285,1.285A1.285,1.285,0,0,0,17.306,24Z" transform="translate(-16.021 -23.999)" fill="#fc4949"/>
      </g>
      <g id="Group_62" data-name="Group 62" transform="translate(15.065 30.818)">
        <path id="Path_55" data-name="Path 55" d="M21.306,24a1.285,1.285,0,1,0,1.285,1.285A1.285,1.285,0,0,0,21.306,24Z" transform="translate(-20.021 -23.999)" fill="#fc4949"/>
      </g>
      <g id="Group_63" data-name="Group 63" transform="translate(9.927 35.957)">
        <path id="Path_56" data-name="Path 56" d="M17.306,28a1.285,1.285,0,1,0,1.285,1.285A1.285,1.285,0,0,0,17.306,28Z" transform="translate(-16.021 -27.999)" fill="#fc4949"/>
      </g>
      <g id="Group_64" data-name="Group 64" transform="translate(15.065 35.957)">
        <path id="Path_57" data-name="Path 57" d="M21.306,28a1.285,1.285,0,1,0,1.285,1.285A1.285,1.285,0,0,0,21.306,28Z" transform="translate(-20.021 -27.999)" fill="#fc4949"/>
      </g>
      <g id="Group_65" data-name="Group 65" transform="translate(9.927 41.095)">
        <path id="Path_58" data-name="Path 58" d="M17.306,32a1.285,1.285,0,1,0,1.285,1.285A1.285,1.285,0,0,0,17.306,32Z" transform="translate(-16.021 -31.999)" fill="#fc4949"/>
      </g>
      <g id="Group_66" data-name="Group 66" transform="translate(15.065 41.095)">
        <path id="Path_59" data-name="Path 59" d="M21.306,32a1.285,1.285,0,1,0,1.285,1.285A1.285,1.285,0,0,0,21.306,32Z" transform="translate(-20.021 -31.999)" fill="#fc4949"/>
      </g>
      <g id="Group_67" data-name="Group 67" transform="translate(9.927 46.233)">
        <path id="Path_60" data-name="Path 60" d="M17.306,36a1.285,1.285,0,1,0,1.285,1.285A1.285,1.285,0,0,0,17.306,36Z" transform="translate(-16.021 -35.999)" fill="#fc4949"/>
      </g>
      <g id="Group_68" data-name="Group 68" transform="translate(15.065 46.233)">
        <path id="Path_61" data-name="Path 61" d="M21.306,36a1.285,1.285,0,1,0,1.285,1.285A1.285,1.285,0,0,0,21.306,36Z" transform="translate(-20.021 -35.999)" fill="#fc4949"/>
      </g>
      <g id="Group_69" data-name="Group 69" transform="translate(20.203 30.818)">
        <path id="Path_62" data-name="Path 62" d="M25.306,24a1.285,1.285,0,1,0,1.285,1.285A1.285,1.285,0,0,0,25.306,24Z" transform="translate(-24.021 -23.999)" fill="#fc4949"/>
      </g>
    </g>
  </g>
</svg>
