<svg xmlns="http://www.w3.org/2000/svg" width="60.058" height="60.121" viewBox="0 0 60.058 60.121">
  <g id="iconfinder_icon-ios7-gear-outline_211750" transform="translate(-64 -64)">
    <path id="Path_43" data-name="Path 43" d="M175.822,160a15.013,15.013,0,1,0,10.625,4.4A14.925,14.925,0,0,0,175.822,160Zm0,27.541a12.519,12.519,0,1,1,12.519-12.519A12.515,12.515,0,0,1,175.822,187.541Z" transform="translate(-81.652 -80.978)" fill="#fc4949"/>
    <path id="Path_44" data-name="Path 44" d="M120.412,87.786h-2.379a3.62,3.62,0,0,1-3.568-3.63,3.392,3.392,0,0,1,1.174-2.566l1.534-1.5a3.844,3.844,0,0,0,0-5.461l-3.49-3.458a3.971,3.971,0,0,0-5.477,0l-1.471,1.471a3.6,3.6,0,0,1-2.692,1.2,3.687,3.687,0,0,1-3.709-3.552V67.928A3.856,3.856,0,0,0,96.58,64H91.823a3.92,3.92,0,0,0-3.881,3.928v2.379a3.645,3.645,0,0,1-3.662,3.552,3.524,3.524,0,0,1-2.6-1.158l-1.518-1.5a3.855,3.855,0,0,0-2.738-1.1,3.951,3.951,0,0,0-2.738,1.1L71.2,74.641a3.853,3.853,0,0,0,0,5.446l1.471,1.471a3.453,3.453,0,0,1,1.221,2.613,3.62,3.62,0,0,1-3.568,3.63H67.943A3.921,3.921,0,0,0,64,91.666v4.757a3.955,3.955,0,0,0,3.943,3.881h2.379a3.62,3.62,0,0,1,3.568,3.63,3.51,3.51,0,0,1-1.221,2.629L71.2,108a3.853,3.853,0,0,0,0,5.446l3.49,3.474a3.855,3.855,0,0,0,2.738,1.1,3.951,3.951,0,0,0,2.738-1.1l1.518-1.5a3.44,3.44,0,0,1,2.582-1.158,3.645,3.645,0,0,1,3.662,3.552v2.379a3.927,3.927,0,0,0,3.865,3.928h4.757a3.954,3.954,0,0,0,3.9-3.928v-2.379a3.6,3.6,0,0,1,6.291-2.347l1.471,1.471a3.971,3.971,0,0,0,5.477,0l3.49-3.474a3.872,3.872,0,0,0,0-5.461l-1.534-1.5a3.515,3.515,0,0,1-1.174-2.613,3.676,3.676,0,0,1,3.568-3.693h2.379a3.586,3.586,0,0,0,3.646-3.74V91.666A3.706,3.706,0,0,0,120.412,87.786Zm1.174,6.259v2.363a1.116,1.116,0,0,1-1.142,1.236h-2.379a6.017,6.017,0,0,0-4.3,1.878,6.211,6.211,0,0,0-1.768,4.35,5.909,5.909,0,0,0,1.956,4.413l1.487,1.471a1.389,1.389,0,0,1,0,1.925l-3.49,3.474a1.454,1.454,0,0,1-.986.376,1.426,1.426,0,0,1-.986-.376l-1.424-1.424a6.092,6.092,0,0,0-8.763-.219,5.928,5.928,0,0,0-1.815,4.3v2.379a1.455,1.455,0,0,1-1.393,1.424H91.823a1.428,1.428,0,0,1-1.361-1.424v-2.379a5.969,5.969,0,0,0-1.831-4.3,6.218,6.218,0,0,0-4.319-1.753,6,6,0,0,0-4.4,1.94l-1.455,1.455a1.454,1.454,0,0,1-.986.376,1.342,1.342,0,0,1-.955-.344l-.016-.016-.016-.016L73,111.681a1.37,1.37,0,0,1,0-1.909l1.424-1.408a6.038,6.038,0,0,0,.219-8.747,5.939,5.939,0,0,0-4.3-1.8H67.943a1.456,1.456,0,0,1-1.44-1.377V91.666a1.456,1.456,0,0,1,1.44-1.377h2.379a5.939,5.939,0,0,0,4.3-1.8,6.128,6.128,0,0,0,1.768-4.3,5.974,5.974,0,0,0-1.987-4.444l-1.44-1.424a1.321,1.321,0,0,1-.391-.955,1.343,1.343,0,0,1,.391-.955l3.474-3.458a1.454,1.454,0,0,1,.986-.376,1.342,1.342,0,0,1,.955.344l.016.016.016.016,1.471,1.471a5.942,5.942,0,0,0,4.4,1.94A6.19,6.19,0,0,0,88.6,74.61a5.959,5.959,0,0,0,1.847-4.3V67.928a1.413,1.413,0,0,1,1.33-1.424h4.773A1.35,1.35,0,0,1,97.8,67.928v2.379a6.017,6.017,0,0,0,1.878,4.3,6.264,6.264,0,0,0,4.35,1.753,6.109,6.109,0,0,0,4.475-1.972l1.424-1.424a1.454,1.454,0,0,1,.986-.376,1.49,1.49,0,0,1,.986.36l3.49,3.458a1.365,1.365,0,0,1,.407.955,1.35,1.35,0,0,1-.391.955l-1.487,1.471a5.965,5.965,0,0,0-1.956,4.413,6.064,6.064,0,0,0,1.768,4.288,5.939,5.939,0,0,0,4.3,1.8h2.379c.845,0,1.158.782,1.174,1.408v2.347Z" fill="#fc4949"/>
  </g>
</svg>
