<svg xmlns="http://www.w3.org/2000/svg" width="1237" height="263" viewBox="0 0 1237 263">
  <g id="Group_81" data-name="Group 81" transform="translate(-461 -3138)">
    <path id="Path_42" data-name="Path 42" d="M51.828,29.33H33.09V.764L11.382,44.18H30.12V72.747ZM16.188,41.21,30.12,13.345V32.3h16.9L33.09,60.165V41.21Z" transform="translate(494.618 3150.236)" fill="#fc4949"/>
    <text id="Electrical_Services" data-name="Electrical Services" transform="translate(461 3292)" fill="#e77474" font-size="28" font-family="Roboto-Black, Roboto" font-weight="800" letter-spacing="0.025em"><tspan x="0" y="29">Electrical </tspan><tspan x="0" y="69">Services</tspan></text>
    <text id="MechanicalServices" transform="translate(788 3292)" fill="#e77474" font-size="28" font-family="Roboto-Black, Roboto" font-weight="800" letter-spacing="0.025em"><tspan x="0" y="29">Mechanical</tspan><tspan x="0" y="69">Services</tspan></text>
    <text id="Structural_Civil_Services" data-name="Structural/Civil Services" transform="translate(1133 3292)" fill="#e77474" font-size="28" font-family="Roboto-Black, Roboto" font-weight="800" letter-spacing="0.025em"><tspan x="0" y="29">Structural/</tspan><tspan x="0" y="69">Civil Services</tspan></text>
    <text id="Instrumentaion_Control_Services" data-name="Instrumentaion/Control Services" transform="translate(1476 3292)" fill="#e77474" font-size="28" font-family="Roboto-Black, Roboto" font-weight="800" letter-spacing="0.025em"><tspan x="0" y="29">Instrumentaion/</tspan><tspan x="0" y="69">Control Services</tspan></text>
    <g id="iconfinder_icon-ios7-gear-outline_211750" transform="translate(778.083 3087)">
      <path id="Path_43" data-name="Path 43" d="M175.822,160a15.013,15.013,0,1,0,10.625,4.4A14.925,14.925,0,0,0,175.822,160Zm0,27.541a12.519,12.519,0,1,1,12.519-12.519A12.515,12.515,0,0,1,175.822,187.541Z" transform="translate(-81.652 -80.978)" fill="#fc4949"/>
      <path id="Path_44" data-name="Path 44" d="M120.412,87.786h-2.379a3.62,3.62,0,0,1-3.568-3.63,3.392,3.392,0,0,1,1.174-2.566l1.534-1.5a3.844,3.844,0,0,0,0-5.461l-3.49-3.458a3.971,3.971,0,0,0-5.477,0l-1.471,1.471a3.6,3.6,0,0,1-2.692,1.2,3.687,3.687,0,0,1-3.709-3.552V67.928A3.856,3.856,0,0,0,96.58,64H91.823a3.92,3.92,0,0,0-3.881,3.928v2.379a3.645,3.645,0,0,1-3.662,3.552,3.524,3.524,0,0,1-2.6-1.158l-1.518-1.5a3.855,3.855,0,0,0-2.738-1.1,3.951,3.951,0,0,0-2.738,1.1L71.2,74.641a3.853,3.853,0,0,0,0,5.446l1.471,1.471a3.453,3.453,0,0,1,1.221,2.613,3.62,3.62,0,0,1-3.568,3.63H67.943A3.921,3.921,0,0,0,64,91.666v4.757a3.955,3.955,0,0,0,3.943,3.881h2.379a3.62,3.62,0,0,1,3.568,3.63,3.51,3.51,0,0,1-1.221,2.629L71.2,108a3.853,3.853,0,0,0,0,5.446l3.49,3.474a3.855,3.855,0,0,0,2.738,1.1,3.951,3.951,0,0,0,2.738-1.1l1.518-1.5a3.44,3.44,0,0,1,2.582-1.158,3.645,3.645,0,0,1,3.662,3.552v2.379a3.927,3.927,0,0,0,3.865,3.928h4.757a3.954,3.954,0,0,0,3.9-3.928v-2.379a3.6,3.6,0,0,1,6.291-2.347l1.471,1.471a3.971,3.971,0,0,0,5.477,0l3.49-3.474a3.872,3.872,0,0,0,0-5.461l-1.534-1.5a3.515,3.515,0,0,1-1.174-2.613,3.676,3.676,0,0,1,3.568-3.693h2.379a3.586,3.586,0,0,0,3.646-3.74V91.666A3.706,3.706,0,0,0,120.412,87.786Zm1.174,6.259v2.363a1.116,1.116,0,0,1-1.142,1.236h-2.379a6.017,6.017,0,0,0-4.3,1.878,6.211,6.211,0,0,0-1.768,4.35,5.909,5.909,0,0,0,1.956,4.413l1.487,1.471a1.389,1.389,0,0,1,0,1.925l-3.49,3.474a1.454,1.454,0,0,1-.986.376,1.426,1.426,0,0,1-.986-.376l-1.424-1.424a6.092,6.092,0,0,0-8.763-.219,5.928,5.928,0,0,0-1.815,4.3v2.379a1.455,1.455,0,0,1-1.393,1.424H91.823a1.428,1.428,0,0,1-1.361-1.424v-2.379a5.969,5.969,0,0,0-1.831-4.3,6.218,6.218,0,0,0-4.319-1.753,6,6,0,0,0-4.4,1.94l-1.455,1.455a1.454,1.454,0,0,1-.986.376,1.342,1.342,0,0,1-.955-.344l-.016-.016-.016-.016L73,111.681a1.37,1.37,0,0,1,0-1.909l1.424-1.408a6.038,6.038,0,0,0,.219-8.747,5.939,5.939,0,0,0-4.3-1.8H67.943a1.456,1.456,0,0,1-1.44-1.377V91.666a1.456,1.456,0,0,1,1.44-1.377h2.379a5.939,5.939,0,0,0,4.3-1.8,6.128,6.128,0,0,0,1.768-4.3,5.974,5.974,0,0,0-1.987-4.444l-1.44-1.424a1.321,1.321,0,0,1-.391-.955,1.343,1.343,0,0,1,.391-.955l3.474-3.458a1.454,1.454,0,0,1,.986-.376,1.342,1.342,0,0,1,.955.344l.016.016.016.016,1.471,1.471a5.942,5.942,0,0,0,4.4,1.94A6.19,6.19,0,0,0,88.6,74.61a5.959,5.959,0,0,0,1.847-4.3V67.928a1.413,1.413,0,0,1,1.33-1.424h4.773A1.35,1.35,0,0,1,97.8,67.928v2.379a6.017,6.017,0,0,0,1.878,4.3,6.264,6.264,0,0,0,4.35,1.753,6.109,6.109,0,0,0,4.475-1.972l1.424-1.424a1.454,1.454,0,0,1,.986-.376,1.49,1.49,0,0,1,.986.36l3.49,3.458a1.365,1.365,0,0,1,.407.955,1.35,1.35,0,0,1-.391.955l-1.487,1.471a5.965,5.965,0,0,0-1.956,4.413,6.064,6.064,0,0,0,1.768,4.288,5.939,5.939,0,0,0,4.3,1.8h2.379c.845,0,1.158.782,1.174,1.408v2.347Z" fill="#fc4949"/>
    </g>
    <path id="iconfinder_building-o_1608589" d="M206.143,48.321v2.357a1.195,1.195,0,0,1-1.179,1.179h-2.357a1.195,1.195,0,0,1-1.179-1.179V48.321a1.195,1.195,0,0,1,1.179-1.179h2.357a1.195,1.195,0,0,1,1.179,1.179Zm0-9.429V41.25a1.195,1.195,0,0,1-1.179,1.179h-2.357a1.195,1.195,0,0,1-1.179-1.179V38.893a1.195,1.195,0,0,1,1.179-1.179h2.357a1.195,1.195,0,0,1,1.179,1.179Zm9.429,0V41.25a1.195,1.195,0,0,1-1.179,1.179h-2.357a1.195,1.195,0,0,1-1.179-1.179V38.893a1.195,1.195,0,0,1,1.179-1.179h2.357a1.195,1.195,0,0,1,1.179,1.179Zm-9.429-9.429v2.357A1.195,1.195,0,0,1,204.964,33h-2.357a1.195,1.195,0,0,1-1.179-1.179V29.464a1.195,1.195,0,0,1,1.179-1.179h2.357a1.195,1.195,0,0,1,1.179,1.179Zm28.286,18.857v2.357a1.195,1.195,0,0,1-1.179,1.179h-2.357a1.195,1.195,0,0,1-1.179-1.179V48.321a1.195,1.195,0,0,1,1.179-1.179h2.357a1.195,1.195,0,0,1,1.179,1.179ZM225,38.893V41.25a1.195,1.195,0,0,1-1.179,1.179h-2.357a1.195,1.195,0,0,1-1.179-1.179V38.893a1.195,1.195,0,0,1,1.179-1.179h2.357A1.195,1.195,0,0,1,225,38.893Zm-9.429-9.429v2.357A1.195,1.195,0,0,1,214.393,33h-2.357a1.195,1.195,0,0,1-1.179-1.179V29.464a1.195,1.195,0,0,1,1.179-1.179h2.357a1.195,1.195,0,0,1,1.179,1.179Zm-9.429-9.429v2.357a1.195,1.195,0,0,1-1.179,1.179h-2.357a1.195,1.195,0,0,1-1.179-1.179V20.036a1.195,1.195,0,0,1,1.179-1.179h2.357a1.195,1.195,0,0,1,1.179,1.179Zm28.286,18.857V41.25a1.195,1.195,0,0,1-1.179,1.179h-2.357a1.195,1.195,0,0,1-1.179-1.179V38.893a1.195,1.195,0,0,1,1.179-1.179h2.357a1.195,1.195,0,0,1,1.179,1.179ZM225,29.464v2.357A1.195,1.195,0,0,1,223.821,33h-2.357a1.195,1.195,0,0,1-1.179-1.179V29.464a1.195,1.195,0,0,1,1.179-1.179h2.357A1.195,1.195,0,0,1,225,29.464Zm-9.429-9.429v2.357a1.195,1.195,0,0,1-1.179,1.179h-2.357a1.195,1.195,0,0,1-1.179-1.179V20.036a1.195,1.195,0,0,1,1.179-1.179h2.357a1.195,1.195,0,0,1,1.179,1.179Zm-9.429-9.429v2.357a1.195,1.195,0,0,1-1.179,1.179h-2.357a1.195,1.195,0,0,1-1.179-1.179V10.607a1.195,1.195,0,0,1,1.179-1.179h2.357a1.195,1.195,0,0,1,1.179,1.179Zm28.286,18.857v2.357A1.195,1.195,0,0,1,233.25,33h-2.357a1.195,1.195,0,0,1-1.179-1.179V29.464a1.195,1.195,0,0,1,1.179-1.179h2.357a1.195,1.195,0,0,1,1.179,1.179ZM225,20.036v2.357a1.195,1.195,0,0,1-1.179,1.179h-2.357a1.195,1.195,0,0,1-1.179-1.179V20.036a1.195,1.195,0,0,1,1.179-1.179h2.357A1.195,1.195,0,0,1,225,20.036Zm-9.429-9.429v2.357a1.195,1.195,0,0,1-1.179,1.179h-2.357a1.195,1.195,0,0,1-1.179-1.179V10.607a1.195,1.195,0,0,1,1.179-1.179h2.357a1.195,1.195,0,0,1,1.179,1.179Zm18.857,9.429v2.357a1.195,1.195,0,0,1-1.179,1.179h-2.357a1.195,1.195,0,0,1-1.179-1.179V20.036a1.195,1.195,0,0,1,1.179-1.179h2.357a1.195,1.195,0,0,1,1.179,1.179ZM225,10.607v2.357a1.195,1.195,0,0,1-1.179,1.179h-2.357a1.195,1.195,0,0,1-1.179-1.179V10.607a1.195,1.195,0,0,1,1.179-1.179h2.357A1.195,1.195,0,0,1,225,10.607Zm9.429,0v2.357a1.195,1.195,0,0,1-1.179,1.179h-2.357a1.195,1.195,0,0,1-1.179-1.179V10.607a1.195,1.195,0,0,1,1.179-1.179h2.357a1.195,1.195,0,0,1,1.179,1.179ZM225,61.286h14.143V4.714H196.714V61.286h14.143v-8.25a1.195,1.195,0,0,1,1.179-1.179h11.786A1.195,1.195,0,0,1,225,53.036ZM243.857,2.357V63.643A2.39,2.39,0,0,1,241.5,66H194.357A2.39,2.39,0,0,1,192,63.643V2.357A2.265,2.265,0,0,1,192.7.7a2.265,2.265,0,0,1,1.657-.7H241.5a2.265,2.265,0,0,1,1.657.7A2.265,2.265,0,0,1,243.857,2.357Z" transform="translate(994 3142)" fill="#e47d7f"/>
    <g id="Expanded" transform="translate(1531.707 3137.993)">
      <g id="Group_70" data-name="Group 70" transform="translate(8.293 0.007)">
        <g id="Group_52" data-name="Group 52" transform="translate(27.911 28.249)">
          <path id="Path_45" data-name="Path 45" d="M46.009,55.4a1.284,1.284,0,0,1-1.015-.5l-7-8.994-.27-.789V33.411c0-3.121-1.644-4.483-5.247-7.467-.623-.516-1.294-1.071-2.009-1.683a1.285,1.285,0,1,1,1.667-1.955c.705.6,1.365,1.15,1.981,1.658,3.72,3.08,6.177,5.116,6.177,9.446V44.68l6.726,8.646A1.285,1.285,0,0,1,46.009,55.4Z" transform="translate(-30.022 -21.999)" fill="#fc4949"/>
        </g>
        <g id="Group_53" data-name="Group 53" transform="translate(18.766 35.804)">
          <path id="Path_46" data-name="Path 46" d="M33.516,53.723a1.284,1.284,0,0,1-1.046-.537l-1.317-1.843a8.942,8.942,0,0,1-1.675-5.228v-3.55l-5.493-7.933a4.009,4.009,0,0,1,5.758-5.579l7.065,7.065a1.284,1.284,0,0,1-1.816,1.816l-7.065-7.065a1.44,1.44,0,0,0-2.037,2.036l.148.177,5.78,8.349.229.731v3.952a6.389,6.389,0,0,0,1.2,3.735l1.317,1.842a1.284,1.284,0,0,1-1.046,2.031Z" transform="translate(-22.902 -27.88)" fill="#fc4949"/>
        </g>
        <g id="Group_54" data-name="Group 54" transform="translate(2.22 17.973)">
          <path id="Path_47" data-name="Path 47" d="M34.427,52.535H15.159A5.143,5.143,0,0,1,10.021,47.4V19.137A5.143,5.143,0,0,1,15.159,14H33.142a5.143,5.143,0,0,1,5.138,5.138V38.4H35.711V19.137a2.572,2.572,0,0,0-2.569-2.569H15.159a2.572,2.572,0,0,0-2.569,2.569V47.4a2.572,2.572,0,0,0,2.569,2.569H34.427Z" transform="translate(-10.021 -13.999)" fill="#fc4949"/>
        </g>
        <g id="Group_55" data-name="Group 55" transform="translate(7.267 10.266)">
          <path id="Path_48" data-name="Path 48" d="M30.3,13.578a10.277,10.277,0,0,0-14.533,0L13.95,11.761a12.845,12.845,0,0,1,18.166,0Z" transform="translate(-13.95 -7.999)" fill="#fc4949"/>
        </g>
        <g id="Group_56" data-name="Group 56" transform="translate(3.634 5.137)">
          <path id="Path_49" data-name="Path 49" d="M34.737,11.081a15.432,15.432,0,0,0-21.8,0L11.122,9.265a18,18,0,0,1,25.432,0Z" transform="translate(-11.122 -4.006)" fill="#fc4949"/>
        </g>
        <g id="Group_57" data-name="Group 57">
          <path id="Path_50" data-name="Path 50" d="M39.175,8.585a20.577,20.577,0,0,0-29.066,0L8.293,6.769a23.146,23.146,0,0,1,32.7,0Z" transform="translate(-8.293 -0.007)" fill="#fc4949"/>
        </g>
        <g id="Group_58" data-name="Group 58" transform="translate(9.927 25.68)">
          <path id="Path_51" data-name="Path 51" d="M17.306,20a1.285,1.285,0,1,0,1.285,1.285A1.285,1.285,0,0,0,17.306,20Z" transform="translate(-16.021 -19.999)" fill="#fc4949"/>
        </g>
        <g id="Group_59" data-name="Group 59" transform="translate(15.065 25.68)">
          <path id="Path_52" data-name="Path 52" d="M21.306,20a1.285,1.285,0,1,0,1.285,1.285A1.285,1.285,0,0,0,21.306,20Z" transform="translate(-20.021 -19.999)" fill="#fc4949"/>
        </g>
        <g id="Group_60" data-name="Group 60" transform="translate(20.203 25.68)">
          <path id="Path_53" data-name="Path 53" d="M25.306,20a1.285,1.285,0,1,0,1.285,1.285A1.285,1.285,0,0,0,25.306,20Z" transform="translate(-24.021 -19.999)" fill="#fc4949"/>
        </g>
        <g id="Group_61" data-name="Group 61" transform="translate(9.927 30.818)">
          <path id="Path_54" data-name="Path 54" d="M17.306,24a1.285,1.285,0,1,0,1.285,1.285A1.285,1.285,0,0,0,17.306,24Z" transform="translate(-16.021 -23.999)" fill="#fc4949"/>
        </g>
        <g id="Group_62" data-name="Group 62" transform="translate(15.065 30.818)">
          <path id="Path_55" data-name="Path 55" d="M21.306,24a1.285,1.285,0,1,0,1.285,1.285A1.285,1.285,0,0,0,21.306,24Z" transform="translate(-20.021 -23.999)" fill="#fc4949"/>
        </g>
        <g id="Group_63" data-name="Group 63" transform="translate(9.927 35.957)">
          <path id="Path_56" data-name="Path 56" d="M17.306,28a1.285,1.285,0,1,0,1.285,1.285A1.285,1.285,0,0,0,17.306,28Z" transform="translate(-16.021 -27.999)" fill="#fc4949"/>
        </g>
        <g id="Group_64" data-name="Group 64" transform="translate(15.065 35.957)">
          <path id="Path_57" data-name="Path 57" d="M21.306,28a1.285,1.285,0,1,0,1.285,1.285A1.285,1.285,0,0,0,21.306,28Z" transform="translate(-20.021 -27.999)" fill="#fc4949"/>
        </g>
        <g id="Group_65" data-name="Group 65" transform="translate(9.927 41.095)">
          <path id="Path_58" data-name="Path 58" d="M17.306,32a1.285,1.285,0,1,0,1.285,1.285A1.285,1.285,0,0,0,17.306,32Z" transform="translate(-16.021 -31.999)" fill="#fc4949"/>
        </g>
        <g id="Group_66" data-name="Group 66" transform="translate(15.065 41.095)">
          <path id="Path_59" data-name="Path 59" d="M21.306,32a1.285,1.285,0,1,0,1.285,1.285A1.285,1.285,0,0,0,21.306,32Z" transform="translate(-20.021 -31.999)" fill="#fc4949"/>
        </g>
        <g id="Group_67" data-name="Group 67" transform="translate(9.927 46.233)">
          <path id="Path_60" data-name="Path 60" d="M17.306,36a1.285,1.285,0,1,0,1.285,1.285A1.285,1.285,0,0,0,17.306,36Z" transform="translate(-16.021 -35.999)" fill="#fc4949"/>
        </g>
        <g id="Group_68" data-name="Group 68" transform="translate(15.065 46.233)">
          <path id="Path_61" data-name="Path 61" d="M21.306,36a1.285,1.285,0,1,0,1.285,1.285A1.285,1.285,0,0,0,21.306,36Z" transform="translate(-20.021 -35.999)" fill="#fc4949"/>
        </g>
        <g id="Group_69" data-name="Group 69" transform="translate(20.203 30.818)">
          <path id="Path_62" data-name="Path 62" d="M25.306,24a1.285,1.285,0,1,0,1.285,1.285A1.285,1.285,0,0,0,25.306,24Z" transform="translate(-24.021 -23.999)" fill="#fc4949"/>
        </g>
      </g>
    </g>
  </g>
</svg>
